<svg xmlns="http://www.w3.org/2000/svg" viewBox="0 0 1600 620" preserveAspectRatio="xMidYMid slice">
<defs>
 <linearGradient id="b" x1="0" y1=".2" x2="1" y2=".8"><stop stop-color="#02070d"/><stop offset=".5" stop-color="#081726"/><stop offset="1" stop-color="#03080d"/></linearGradient>
 <radialGradient id="r1" cx=".14" cy=".5" r=".55"><stop stop-color="#326ea9" stop-opacity=".18"/><stop offset="1" stop-opacity="0"/></radialGradient>
 <radialGradient id="r2" cx=".88" cy=".15" r=".45"><stop stop-color="#5d54b8" stop-opacity=".11"/><stop offset="1" stop-opacity="0"/></radialGradient>
</defs>
<rect width="1600" height="620" fill="url(#b)"/><rect width="1600" height="620" fill="url(#r1)"/><rect width="1600" height="620" fill="url(#r2)"/>
<g fill="none" stroke="#69b7ff" stroke-opacity=".13">
 <rect x="80" y="105" width="240" height="150" rx="18"/><rect x="350" y="160" width="270" height="150" rx="18"/><rect x="650" y="102" width="250" height="150" rx="18"/><rect x="930" y="174" width="250" height="150" rx="18"/><rect x="1210" y="112" width="300" height="150" rx="18"/>
</g>
<g stroke="#69b7ff" stroke-opacity=".12" stroke-dasharray="3 10"><path d="M320 180h30"/><path d="M620 228h30"/><path d="M900 184h30"/><path d="M1180 230h30"/></g>
<path d="M0 520C310 452 560 500 810 540s465 26 790-45" fill="none" stroke="#69b7ff" stroke-opacity=".14"/>
</svg>